<?xml version="1.0" encoding="UTF-8" standalone="no"?>
<!-- Created with Inkscape (http://www.inkscape.org/) -->

<svg
   xmlns:dc="http://purl.org/dc/elements/1.1/"
   xmlns:cc="http://creativecommons.org/ns#"
   xmlns:rdf="http://www.w3.org/1999/02/22-rdf-syntax-ns#"
   xmlns:svg="http://www.w3.org/2000/svg"
   xmlns="http://www.w3.org/2000/svg"
   xmlns:sodipodi="http://sodipodi.sourceforge.net/DTD/sodipodi-0.dtd"
   xmlns:inkscape="http://www.inkscape.org/namespaces/inkscape"
   width="256"
   height="256"
   viewBox="0 0 67.733332 67.733335"
   version="1.1"
   id="svg8"
   inkscape:version="0.92.4 (5da689c313, 2019-01-14)"
   sodipodi:docname="logo.svg"
   inkscape:export-filename="C:\Users\Owen\Desktop\logo.png"
   inkscape:export-xdpi="384.00003"
   inkscape:export-ydpi="384.00003">
  <defs
     id="defs2" />
  <sodipodi:namedview
     id="base"
     pagecolor="#ffffff"
     bordercolor="#666666"
     borderopacity="1.0"
     inkscape:pageopacity="1"
     inkscape:pageshadow="2"
     inkscape:zoom="1.4"
     inkscape:cx="68.618029"
     inkscape:cy="133.97448"
     inkscape:document-units="mm"
     inkscape:current-layer="layer1"
     showgrid="false"
     units="px"
     inkscape:window-width="1440"
     inkscape:window-height="837"
     inkscape:window-x="-8"
     inkscape:window-y="-8"
     inkscape:window-maximized="1" />
  <metadata
     id="metadata5">
    <rdf:RDF>
      <cc:Work
         rdf:about="">
        <dc:format>image/svg+xml</dc:format>
        <dc:type
           rdf:resource="http://purl.org/dc/dcmitype/StillImage" />
        <dc:title />
      </cc:Work>
    </rdf:RDF>
  </metadata>
  <g
     inkscape:label="Layer 1"
     inkscape:groupmode="layer"
     id="layer1"
     transform="translate(0,-229.26665)">
    <path
       style="fill:#efea9a;fill-opacity:1;stroke:none;stroke-width:0.26458332px;stroke-linecap:butt;stroke-linejoin:miter;stroke-opacity:1"
       d="m 15.686012,253.9107 5.38616,9.07143 2.645834,3.77976 1.700893,6.42559 1.488281,2.85845 13.914247,0.0945 5.10268,-11.9535 7.262529,-12.75639 -0.895993,-8.30397 -10.536086,2.64584 -1.819011,8.18554 -7.295255,-7.68905 -5.278573,0.20045 -3.908817,-5.51244 c 0,0 -5.028008,3.74178 -5.044712,3.65826 -0.01671,-0.0835 -2.639287,-4.82756 -2.639287,-4.82756 l -1.002261,10.17295 z"
       id="path816"
       inkscape:connector-curvature="0" />
    <path
       style="fill:#bdbdbd;fill-opacity:1;stroke:#000000;stroke-width:0.26458332px;stroke-linecap:butt;stroke-linejoin:miter;stroke-opacity:1"
       d="m 26.90718,276.04593 -0.4016,8.95331 8.079242,1.93713 7.748511,-1.98438 -0.377976,-8.03199 z"
       id="path818"
       inkscape:connector-curvature="0" />
    <path
       style="fill:#000000;stroke-width:0.28351516"
       d="m 29.220803,287.9279 c -0.349971,-0.37252 -1.021953,-0.75444 -1.493296,-0.84872 -0.471344,-0.0943 -1.227899,-0.56846 -1.681234,-1.05375 l -0.824244,-0.88235 v -3.87615 c 0,-3.10606 0.09078,-4.00576 0.456962,-4.52855 0.432368,-0.61729 0.417929,-0.69316 -0.268316,-1.40978 -1.027164,-1.07262 -1.786806,-2.97408 -2.154015,-5.39171 -0.393768,-2.59247 -0.600655,-2.99727 -3.911386,-7.65317 -4.590478,-6.45561 -5.920312,-10.12922 -5.683398,-15.70018 0.106845,-2.51228 0.309196,-3.71311 0.94269,-5.59408 1.428781,-4.24236 2.414364,-4.40406 3.820965,-0.62692 0.502831,1.35025 0.993823,2.54152 1.091094,2.64727 0.09728,0.10576 1.133723,-0.62964 2.303223,-1.6342 1.326207,-1.13916 2.337103,-1.7983 2.686388,-1.75161 0.37142,0.0496 1.246222,1.17292 2.597535,3.33528 1.12063,1.79324 2.144437,3.24202 2.275126,3.21952 0.130689,-0.0225 1.386781,-0.12929 2.791312,-0.23729 l 2.553694,-0.19637 2.09927,3.01241 c 1.154599,1.65683 2.19032,2.91185 2.301599,2.78893 0.11128,-0.12292 0.743814,-1.88206 1.405629,-3.90919 0.661814,-2.02713 1.377263,-3.87036 1.589884,-4.09606 0.378981,-0.40228 1.518831,-0.2347 4.811703,0.70744 0.439162,0.12565 1.121203,-0.26937 2.693393,-1.55999 3.449121,-2.83137 4.188432,-2.16429 4.445793,4.01149 0.235354,5.64776 -1.060951,9.34298 -5.432553,15.48593 -2.85714,4.01484 -3.424205,5.15817 -3.835599,7.7334 -0.371096,2.32297 -0.776684,3.51362 -1.649925,4.84353 l -0.684423,1.04235 0.661798,0.89404 c 0.583764,0.78862 0.672898,1.27033 0.755931,4.08525 0.07045,2.38861 -0.01437,3.45093 -0.337335,4.22386 -0.427008,1.02198 -1.886804,2.176 -2.755166,2.17805 -0.2457,5.7e-4 -0.74637,0.32002 -1.112601,0.70985 -0.656959,0.6993 -0.727171,0.70879 -5.245029,0.70879 -4.461128,0 -4.59556,-0.0175 -5.215469,-0.67732 z m 11.814989,-3.16621 c 0.346563,-0.24274 0.630115,-0.5617 0.630115,-0.70878 0,-0.16058 -2.888617,-0.26745 -7.229635,-0.26745 -4.34102,0 -7.229636,0.10684 -7.229636,0.26745 0,0.14708 0.283551,0.46604 0.630115,0.70878 0.521866,0.36553 1.6556,0.44135 6.599521,0.44135 4.943919,0 6.077653,-0.0759 6.59952,-0.44135 z m 0.02591,-3.34131 c 0.173673,-0.20926 0.231822,-0.46443 0.129221,-0.56703 -0.24371,-0.2437 -13.265593,-0.2437 -13.509303,0 -0.102601,0.10255 -0.04445,0.35777 0.129221,0.56703 0.460278,0.55461 12.790583,0.55461 13.250861,0 z m 0.604203,-3.07233 c 0,-0.10576 -0.200485,-0.39287 -0.445525,-0.63791 -0.37814,-0.37814 -1.393148,-0.44552 -6.711159,-0.44552 -5.432378,0 -6.334588,0.0624 -6.784112,0.46921 -0.285163,0.25807 -0.518475,0.54512 -0.518475,0.63791 0,0.0928 3.253335,0.16869 7.229635,0.16869 3.9763,0 7.229636,-0.0866 7.229636,-0.19238 z m -0.466998,-4.55649 c 0.707858,-0.93724 1.601058,-3.50745 1.601058,-4.60713 0,-0.33323 0.195897,-1.26552 0.435329,-2.07178 0.412416,-1.38875 1.088041,-2.48461 5.147223,-8.34873 2.185037,-3.15662 3.498897,-6.86608 3.689912,-10.41784 0.07128,-1.32544 0.02356,-2.88999 -0.106073,-3.4768 l -0.235668,-1.06692 -1.823842,1.47615 -1.823838,1.47616 -2.280381,-0.605 c -1.254208,-0.33275 -2.297875,-0.58069 -2.319256,-0.55099 -0.02138,0.0297 -0.711328,2.09532 -1.533213,4.59024 -0.821884,2.49493 -1.620436,4.69572 -1.774557,4.89064 -0.685875,0.86742 -1.34678,0.30028 -3.918355,-3.36245 l -2.609567,-3.71684 -2.906591,0.19811 -2.906595,0.19811 -1.800534,-3.00273 c -0.990292,-1.6515 -1.893339,-2.97056 -2.006765,-2.93124 -0.113426,0.0393 -1.164377,0.87808 -2.335444,1.86389 -2.795701,2.35346 -3.13692,2.3125 -4.25535,-0.51072 l -0.840047,-2.1205 -0.409565,1.26996 c -0.245774,0.76208 -0.420153,2.51714 -0.436044,4.38863 -0.04097,4.82463 1.102695,7.72036 5.430712,13.75048 3.218872,4.48477 3.599727,5.25227 4.183994,8.43153 0.326862,1.77859 0.736003,3.00715 1.295015,3.88862 l 0.81719,1.28858 h 6.512663 6.512666 z m -13.635402,-5.38679 c -0.153776,-0.19491 -0.361572,-1.08535 -0.461775,-1.97875 -0.270463,-2.4114 -1.210805,-4.6211 -2.661709,-6.25475 -3.302984,-3.71899 -5.006652,-6.88109 -4.831633,-8.9678 0.07629,-0.90969 0.169652,-1.01455 0.903299,-1.01455 0.754596,0 0.849096,0.12123 1.215526,1.55934 0.498278,1.95554 1.65166,3.87656 3.808952,6.34398 1.950976,2.23146 2.663074,3.51267 3.210667,5.7767 0.705783,2.91807 0.771714,3.95538 0.282494,4.4446 -0.536957,0.53697 -1.087158,0.5712 -1.465821,0.0912 z"
       id="path839"
       inkscape:connector-curvature="0" />
  </g>
</svg>
